<?xml version="1.0" encoding="UTF-8"?> <svg xmlns="http://www.w3.org/2000/svg" width="20" height="20" viewBox="0 0 20 20" fill="none"><path d="M9.05319 16.7754C8.61758 17.2108 8.02689 17.4554 7.41099 17.4554C6.79509 17.4554 6.2044 17.2108 5.76879 16.7754L0.680065 11.6866C0.464438 11.471 0.293398 11.215 0.176712 10.9332C0.0600266 10.6515 -2.03113e-05 10.3495 5.15372e-09 10.0445C2.03216e-05 9.73955 0.0601075 9.43757 0.176831 9.15583C0.293554 8.87409 0.464628 8.6181 0.680284 8.40247C0.89594 8.18684 1.15196 8.0158 1.43371 7.89912C1.71547 7.78243 2.01745 7.72238 2.32242 7.7224C2.62738 7.72242 2.92935 7.78251 3.21109 7.89923C3.49284 8.01596 3.74883 8.18703 3.96446 8.40269L6.99634 11.4341C7.10656 11.5438 7.25572 11.6054 7.41121 11.6054C7.5667 11.6054 7.71586 11.5438 7.82608 11.4341L16.0355 3.22468C16.4745 2.8062 17.0597 2.57596 17.6661 2.58317C18.2725 2.59038 18.852 2.83446 19.2809 3.26327C19.7098 3.69207 19.9539 4.27159 19.9612 4.87801C19.9685 5.48443 19.7383 6.06965 19.3199 6.50864L9.05319 16.7754Z" fill="#4A7573"></path></svg> 