<?xml version="1.0" encoding="UTF-8"?> <svg xmlns="http://www.w3.org/2000/svg" width="58" height="58" viewBox="0 0 58 58" fill="none"><path d="M31.7188 17.2271H13.5938C12.5969 17.2271 11.7812 16.4114 11.7812 15.4146V8.16455C11.7812 7.16768 12.5969 6.35205 13.5938 6.35205H17.2912C17.7262 3.78736 19.9647 1.8208 22.6562 1.8208C25.3478 1.8208 27.5863 3.78736 28.0212 6.35205H31.7188C32.7156 6.35205 33.5312 7.16768 33.5312 8.16455V15.4146C33.5312 16.4114 32.7156 17.2271 31.7188 17.2271ZM13.5938 8.16455V15.4146H31.7188V8.16455H27.1875C26.6891 8.16455 26.2812 7.75674 26.2812 7.2583C26.2812 5.25549 24.6591 3.6333 22.6562 3.6333C20.6534 3.6333 19.0312 5.25549 19.0312 7.2583C19.0312 7.75674 18.6234 8.16455 18.125 8.16455H13.5938Z" fill="#4A7573"></path><path d="M34.3469 54.3833H6.34375C3.8425 54.3833 1.8125 52.3533 1.8125 49.8521V13.6021C1.8125 11.1008 3.8425 9.0708 6.34375 9.0708H9.0625C9.56094 9.0708 9.96875 9.47861 9.96875 9.97705C9.96875 10.4755 9.56094 10.8833 9.0625 10.8833H6.34375C4.84844 10.8833 3.625 12.1067 3.625 13.6021V49.8521C3.625 51.3474 4.84844 52.5708 6.34375 52.5708H34.3469C34.8453 52.5708 35.2531 52.9786 35.2531 53.4771C35.2531 53.9755 34.8453 54.3833 34.3469 54.3833ZM42.5938 31.1561C42.0953 31.1561 41.6875 30.7483 41.6875 30.2499V13.6021C41.6875 12.1067 40.4641 10.8833 38.9688 10.8833H36.25C35.7516 10.8833 35.3438 10.4755 35.3438 9.97705C35.3438 9.47861 35.7516 9.0708 36.25 9.0708H38.9688C41.47 9.0708 43.5 11.1008 43.5 13.6021V30.2499C43.5 30.7483 43.0922 31.1561 42.5938 31.1561Z" fill="#4A7573"></path><path d="M30.9303 50.7583H7.25C6.25312 50.7583 5.4375 49.9427 5.4375 48.9458V14.5083C5.4375 13.5114 6.25312 12.6958 7.25 12.6958H9.0625C9.56094 12.6958 9.96875 13.1036 9.96875 13.6021C9.96875 14.1005 9.56094 14.5083 9.0625 14.5083H7.25V48.9458H30.9303C31.4288 48.9458 31.8366 49.3536 31.8366 49.8521C31.8366 50.3505 31.4288 50.7583 30.9303 50.7583ZM38.9688 29.3074C38.4703 29.3074 38.0625 28.8996 38.0625 28.4011V14.5083H36.25C35.7516 14.5083 35.3438 14.1005 35.3438 13.6021C35.3438 13.1036 35.7516 12.6958 36.25 12.6958H38.0625C39.0594 12.6958 39.875 13.5114 39.875 14.5083V28.4011C39.875 28.8996 39.4672 29.3074 38.9688 29.3074Z" fill="#4A7573"></path><path d="M19.0312 30.8208H11.7812C11.2828 30.8208 10.875 30.413 10.875 29.9146V22.6646C10.875 22.1661 11.2828 21.7583 11.7812 21.7583H15.37C15.8684 21.7583 16.2762 22.1661 16.2762 22.6646C16.2762 23.163 15.8684 23.5708 15.37 23.5708H12.6875V29.0083H18.3425C18.5056 28.818 18.7594 28.6911 19.0312 28.6911C19.5297 28.6911 19.9375 29.0989 19.9375 29.5974V29.9146C19.9375 30.413 19.5297 30.8208 19.0312 30.8208Z" fill="#4A7573"></path><path d="M16.3125 28.102C16.0769 28.102 15.8413 28.0114 15.6691 27.8392L13.8566 26.0267C13.7727 25.9428 13.7061 25.8432 13.6607 25.7336C13.6153 25.624 13.5919 25.5065 13.5919 25.3878C13.5919 25.2692 13.6153 25.1517 13.6607 25.042C13.7061 24.9324 13.7727 24.8328 13.8566 24.7489C13.9405 24.665 14.0401 24.5985 14.1497 24.553C14.2593 24.5076 14.3768 24.4843 14.4955 24.4843C14.6141 24.4843 14.7316 24.5076 14.8412 24.553C14.9509 24.5985 15.0505 24.665 15.1344 24.7489L16.2491 25.8636L20.1459 21.1874C20.4631 20.8067 21.0341 20.7524 21.4237 21.0695C21.8044 21.3867 21.8587 21.9577 21.5416 22.3474L17.0103 27.7849C16.8472 27.9842 16.6116 28.102 16.3578 28.1111H16.3125V28.102ZM19.0312 44.4145H11.7812C11.2828 44.4145 10.875 44.0067 10.875 43.5083V36.2583C10.875 35.7599 11.2828 35.352 11.7812 35.352H15.37C15.8684 35.352 16.2762 35.7599 16.2762 36.2583C16.2762 36.7567 15.8684 37.1645 15.37 37.1645H12.6875V42.602H18.3425C18.5056 42.4117 18.7594 42.2849 19.0312 42.2849C19.5297 42.2849 19.9375 42.6927 19.9375 43.1911V43.5083C19.9375 44.0067 19.5297 44.4145 19.0312 44.4145Z" fill="#4A7573"></path><path d="M16.3124 41.6958C16.0768 41.6958 15.8411 41.6052 15.6689 41.433L13.8564 39.6205C13.7725 39.5366 13.706 39.437 13.6606 39.3274C13.6152 39.2177 13.5918 39.1002 13.5918 38.9816C13.5918 38.8629 13.6152 38.7454 13.6606 38.6358C13.706 38.5262 13.7725 38.4266 13.8564 38.3427C13.9403 38.2588 14.0399 38.1922 14.1496 38.1468C14.2592 38.1014 14.3767 38.078 14.4953 38.078C14.614 38.078 14.7315 38.1014 14.8411 38.1468C14.9507 38.1922 15.0504 38.2588 15.1343 38.3427L16.2489 39.4574L20.1458 34.7811C20.463 34.4005 21.0339 34.3461 21.4236 34.6633C21.8043 34.9805 21.8586 35.5514 21.5414 35.9411L17.0102 41.3786C16.8471 41.578 16.6114 41.6958 16.3577 41.7049H16.3124V41.6958ZM33.5311 25.3833H23.5624C23.0639 25.3833 22.6561 24.9755 22.6561 24.4771C22.6561 23.9786 23.0639 23.5708 23.5624 23.5708H33.5311C34.0296 23.5708 34.4374 23.9786 34.4374 24.4771C34.4374 24.9755 34.0296 25.3833 33.5311 25.3833ZM27.1874 29.0083H23.5624C23.0639 29.0083 22.6561 28.6005 22.6561 28.1021C22.6561 27.6036 23.0639 27.1958 23.5624 27.1958H27.1874C27.6858 27.1958 28.0936 27.6036 28.0936 28.1021C28.0936 28.6005 27.6858 29.0083 27.1874 29.0083ZM26.2811 38.9771H23.5624C23.0639 38.9771 22.6561 38.5692 22.6561 38.0708C22.6561 37.5724 23.0639 37.1646 23.5624 37.1646H26.2811C26.7796 37.1646 27.1874 37.5724 27.1874 38.0708C27.1874 38.5692 26.7796 38.9771 26.2811 38.9771ZM26.2811 42.6021H23.5624C23.0639 42.6021 22.6561 42.1942 22.6561 41.6958C22.6561 41.1974 23.0639 40.7896 23.5624 40.7896H26.2811C26.7796 40.7896 27.1874 41.1974 27.1874 41.6958C27.1874 42.1942 26.7796 42.6021 26.2811 42.6021ZM42.5936 56.1958C42.4305 56.1958 42.2583 56.1505 42.1133 56.0599C41.5786 55.7245 28.9999 47.8311 28.9999 38.5964C28.9999 34.3099 32.4708 30.8208 36.7393 30.8208C39.1771 30.8208 41.2343 32.3433 42.5936 34.0652C43.953 32.3524 46.0102 30.8208 48.448 30.8208C52.7164 30.8208 56.1874 34.3099 56.1874 38.5964C56.1874 47.8311 43.6086 55.7245 43.0739 56.0599C42.9289 56.1505 42.7658 56.1958 42.5936 56.1958ZM36.7393 32.6333C33.4677 32.6333 30.8124 35.3067 30.8124 38.5964C30.8124 45.8827 40.328 52.6886 42.5936 54.202C44.8593 52.6886 54.3749 45.8827 54.3749 38.5964C54.3749 35.3067 51.7196 32.6333 48.448 32.6333C46.2368 32.6333 44.3336 34.5092 43.373 36.1224C43.0468 36.6661 42.1496 36.6661 41.8233 36.1224C40.8627 34.5183 38.9505 32.6333 36.7483 32.6333H36.7393Z" fill="#4A7573"></path><path d="M44.5969 48.3384H44.5607C44.3884 48.3335 44.2213 48.2787 44.0797 48.1805C43.9381 48.0824 43.8281 47.9452 43.7632 47.7856L41.1803 41.7137L40.0566 43.9159C39.9025 44.215 39.5944 44.4143 39.25 44.4143H35.915C35.4166 44.4143 35.0088 44.0065 35.0088 43.5081C35.0088 43.0096 35.4166 42.6018 35.915 42.6018H38.6972L40.4463 39.1671C40.6094 38.85 40.9447 38.6506 41.2891 38.6778C41.6425 38.6868 41.9507 38.9043 42.0866 39.2306L44.6694 45.3025L45.7932 43.1093C45.9472 42.8103 46.2553 42.6109 46.5997 42.6109H49.2732C49.7716 42.6109 50.1794 43.0187 50.1794 43.5171C50.1794 44.0156 49.7716 44.4234 49.2732 44.4234H47.1616L45.4125 47.8581C45.3372 48.0075 45.222 48.1332 45.0796 48.2212C44.9373 48.3092 44.7733 48.356 44.606 48.3565L44.5969 48.3384Z" fill="#4A7573"></path></svg> 