<?xml version="1.0" encoding="UTF-8"?> <svg xmlns="http://www.w3.org/2000/svg" width="24" height="19" viewBox="0 0 24 19" fill="none"><path d="M10.9112 17.2916C10.4102 17.7923 9.73092 18.0736 9.02264 18.0736C8.31435 18.0736 7.63506 17.7923 7.13411 17.2916L1.28207 11.4396C1.0341 11.1916 0.837408 10.8972 0.703219 10.5731C0.569031 10.2491 0.499977 9.90184 0.5 9.55113C0.500023 9.20042 0.569124 8.85315 0.703355 8.52915C0.837587 8.20514 1.03432 7.91075 1.28233 7.66278C1.53033 7.41481 1.82475 7.21811 2.14877 7.08392C2.47279 6.94973 2.82007 6.88068 3.17078 6.8807C3.52149 6.88073 3.86876 6.94983 4.19276 7.08406C4.51676 7.21829 4.81115 7.41503 5.05913 7.66303L8.54579 11.1492C8.67254 11.2753 8.84408 11.3461 9.02289 11.3461C9.2017 11.3461 9.37324 11.2753 9.49999 11.1492L18.9409 1.70833C19.4456 1.22707 20.1186 0.962296 20.816 0.970587C21.5134 0.978878 22.1798 1.25957 22.673 1.7527C23.1662 2.24582 23.447 2.91227 23.4554 3.60965C23.4638 4.30703 23.1991 4.98003 22.7179 5.48487L10.9112 17.2916Z" fill="#4A7573"></path></svg> 