<?xml version="1.0" encoding="UTF-8"?> <svg xmlns="http://www.w3.org/2000/svg" width="24" height="24" viewBox="0 0 24 24" fill="none"><g clip-path="url(#clip0_2413_5382)"><path fill-rule="evenodd" clip-rule="evenodd" d="M18.9007 14.288H13.6439C14.0777 12.9864 14.3082 11.8908 14.3462 10.9567C14.4359 8.75297 13.3954 7.88076 12.5067 7.53665C12.4696 7.52205 12.4309 7.51167 12.3914 7.50572C11.7029 7.39692 11.4577 7.72087 11.2953 8.08697L11.2739 8.13497C11.2502 8.18755 11.2346 8.24349 11.2279 8.30081C11.0081 10.1807 10.2054 11.9447 8.93221 13.3453V23.8476C9.07423 23.8996 9.2193 23.9429 9.3666 23.9772C9.40649 23.9866 9.44727 23.9917 9.48824 23.9923C9.92831 23.997 10.4528 23.9993 11.0578 23.9993C11.6613 23.9993 12.3446 23.9969 13.1029 23.9923H18.0551C18.3447 23.9923 18.6291 23.9154 18.8792 23.7695C19.1293 23.6236 19.3361 23.4138 19.4785 23.1617C19.621 22.9096 19.6939 22.6242 19.6898 22.3347C19.6857 22.0451 19.6048 21.7619 19.4553 21.5139C19.7858 21.2635 20.0087 20.8967 20.0786 20.488C20.1486 20.0793 20.0603 19.6593 19.8319 19.3132C20.1526 19.0412 20.356 18.656 20.3998 18.2377C20.4435 17.8194 20.3242 17.4004 20.0667 17.0679C20.2925 16.8383 20.4454 16.547 20.5063 16.2307C20.5671 15.9144 20.5331 15.5872 20.4085 15.2902C20.2839 14.9932 20.0743 14.7396 19.806 14.5613C19.5378 14.3831 19.2228 14.2881 18.9007 14.2882V14.288ZM7.83318 4.85967C7.79989 4.75709 7.73784 4.66623 7.65441 4.5979C7.57098 4.52957 7.46968 4.48664 7.36256 4.47422L5.82693 4.29754L5.18474 2.89261C5.14011 2.79434 5.06813 2.71101 4.9774 2.65257C4.88667 2.59412 4.78103 2.56304 4.6731 2.56304C4.56518 2.56304 4.45954 2.59412 4.3688 2.65257C4.27807 2.71101 4.20609 2.79434 4.16146 2.89261L3.51927 4.29754L1.9837 4.47422C1.87657 4.48652 1.77523 4.52935 1.69176 4.59761C1.60828 4.66588 1.54619 4.7567 1.51287 4.85925C1.47956 4.96181 1.47642 5.07178 1.50384 5.17607C1.53126 5.28036 1.58808 5.37457 1.66752 5.44748L2.80574 6.49279L2.49932 8.00765C2.47816 8.11328 2.48773 8.22275 2.52691 8.3231C2.5661 8.42344 2.63324 8.51044 2.72038 8.57377C2.80752 8.6371 2.911 8.6741 3.01854 8.68039C3.12607 8.68668 3.23316 8.66199 3.32709 8.60925L4.67296 7.84936L6.01912 8.60925C6.11301 8.66224 6.22016 8.68713 6.3278 8.68095C6.43544 8.67478 6.53904 8.63779 6.62626 8.57441C6.71348 8.51103 6.78064 8.42391 6.81976 8.32344C6.85887 8.22297 6.86829 8.11337 6.84688 8.0077L6.54046 6.49284L7.67868 5.44753C7.75805 5.37465 7.81481 5.28051 7.84219 5.17629C7.86957 5.07208 7.86643 4.96219 7.83313 4.85972L7.83318 4.85967ZM22.4879 4.85967C22.5212 4.96214 22.5244 5.07202 22.497 5.17623C22.4696 5.28045 22.4129 5.3746 22.3335 5.44748L21.1952 6.49279L21.5016 8.00765C21.523 8.11332 21.5136 8.22291 21.4745 8.32337C21.4354 8.42384 21.3682 8.51094 21.281 8.57432C21.1938 8.63771 21.0902 8.67469 20.9826 8.68087C20.875 8.68706 20.7678 8.66218 20.6739 8.6092L19.3281 7.84931L17.9821 8.6092C17.8882 8.66219 17.781 8.68708 17.6734 8.6809C17.5658 8.67473 17.4622 8.63775 17.3749 8.57436C17.2877 8.51098 17.2206 8.42387 17.1814 8.32339C17.1423 8.22292 17.1329 8.11333 17.1543 8.00765L17.4607 6.49279L16.3225 5.44748C16.2431 5.37457 16.1863 5.28036 16.1588 5.17607C16.1314 5.07178 16.1346 4.96181 16.1679 4.85925C16.2012 4.7567 16.2633 4.66588 16.3468 4.59761C16.4302 4.52935 16.5316 4.48652 16.6387 4.47422L18.1738 4.29754L18.8163 2.89261C18.8609 2.79435 18.9329 2.71102 19.0236 2.65258C19.1143 2.59414 19.2199 2.56307 19.3278 2.56307C19.4358 2.56307 19.5414 2.59414 19.6321 2.65258C19.7228 2.71102 19.7948 2.79435 19.8394 2.89261L20.4819 4.29754L22.0171 4.47422C22.1242 4.48662 22.2255 4.52954 22.309 4.59788C22.3924 4.66621 22.4544 4.75708 22.4877 4.85967H22.4879ZM15.7868 2.75118C15.7534 2.64848 15.6914 2.55747 15.608 2.4889C15.5246 2.42032 15.4233 2.37705 15.3161 2.36418L13.3392 2.13862L12.512 0.327279C12.4669 0.229565 12.3947 0.146817 12.3041 0.0888191C12.2134 0.0308213 12.108 0 12.0004 0C11.8928 0 11.7874 0.0308213 11.6967 0.0888191C11.6061 0.146817 11.5339 0.229565 11.4888 0.327279L10.6615 2.13848L8.68471 2.36404C8.57765 2.37661 8.47645 2.41961 8.3931 2.48797C8.30975 2.55632 8.24775 2.64714 8.21447 2.74967C8.18119 2.85219 8.17801 2.96211 8.20532 3.06639C8.23263 3.17066 8.28928 3.26492 8.36854 3.33797L9.83413 4.68431L9.43954 6.63431C9.4182 6.73996 9.42767 6.84952 9.46681 6.94994C9.50595 7.05037 9.57312 7.13743 9.66033 7.20078C9.74753 7.26412 9.8511 7.30108 9.95871 7.30725C10.0663 7.31341 10.1734 7.28854 10.2673 7.23558L12.0004 6.258L13.7334 7.23567C13.8273 7.28862 13.9344 7.31348 14.042 7.30731C14.1496 7.30113 14.2532 7.26417 14.3404 7.20083C14.4276 7.13749 14.4947 7.05043 14.5339 6.95001C14.573 6.8496 14.5825 6.74005 14.5611 6.6344L14.1666 4.6844L15.6322 3.33797C15.7116 3.26526 15.7683 3.17127 15.7958 3.06722C15.8232 2.96316 15.8201 2.85341 15.7869 2.75104L15.7868 2.75118ZM7.80721 14.3898C7.70815 14.2323 7.57078 14.1025 7.40794 14.0125C7.2451 13.9225 7.0621 13.8752 6.87604 13.8751H2.99348C2.70161 13.8754 2.42177 13.9914 2.21536 14.1978C2.00894 14.4041 1.89282 14.6839 1.89248 14.9758V22.8981C1.89273 23.19 2.00878 23.47 2.21519 23.6765C2.4216 23.883 2.7015 23.9992 2.99348 23.9996H6.87604C7.06205 23.9995 7.24501 23.9523 7.40784 23.8624C7.57067 23.7725 7.70807 23.6427 7.80721 23.4854V14.3898ZM3.31518 15.9413C3.31518 15.7922 3.37444 15.6491 3.47993 15.5436C3.58542 15.4381 3.7285 15.3788 3.87768 15.3788H4.29051C4.43969 15.3788 4.58277 15.4381 4.68826 15.5436C4.79375 15.6491 4.85301 15.7922 4.85301 15.9413C4.85301 16.0905 4.79375 16.2336 4.68826 16.3391C4.58277 16.4446 4.43969 16.5038 4.29051 16.5038H3.87773C3.80385 16.5038 3.7307 16.4893 3.66245 16.461C3.5942 16.4328 3.53219 16.3913 3.47995 16.3391C3.42771 16.2869 3.38627 16.2249 3.358 16.1566C3.32973 16.0884 3.31518 16.0152 3.31518 15.9413Z" fill="#4A7573"></path></g><defs><clipPath id="clip0_2413_5382"><rect width="24" height="24" fill="white"></rect></clipPath></defs></svg> 